<?xml version="1.0" encoding="iso-8859-1"?>
<!-- Generator: Adobe Illustrator 16.0.0, SVG Export Plug-In . SVG Version: 6.00 Build 0)  -->
<!DOCTYPE svg PUBLIC "-//W3C//DTD SVG 1.1//EN" "http://www.w3.org/Graphics/SVG/1.1/DTD/svg11.dtd">
<svg version="1.1" id="Capa_1" xmlns="http://www.w3.org/2000/svg" xmlns:xlink="http://www.w3.org/1999/xlink" x="0px" y="0px"
	 width="100.642px" height="100.642px" viewBox="0 0 100.642 100.642" style="enable-background:new 0 0 100.642 100.642;"
	 xml:space="preserve">
<g>
	<g>
		<path d="M25.95,41.827L9.606,30.902c-0.203-0.135-0.465-0.148-0.68-0.033c-0.216,0.115-0.35,0.34-0.35,0.584v19.859
			c0,0.221,0.11,0.428,0.294,0.55l16.345,10.926c0.111,0.073,0.239,0.111,0.368,0.111c0.107,0,0.214-0.025,0.312-0.078
			c0.215-0.115,0.35-0.339,0.35-0.583v-19.86C26.244,42.156,26.134,41.95,25.95,41.827z"/>
		<path d="M25.95,66.989L9.606,56.064c-0.203-0.137-0.465-0.149-0.68-0.034c-0.216,0.115-0.35,0.34-0.35,0.584v19.858
			c0,0.222,0.11,0.429,0.294,0.552L25.215,87.95c0.111,0.074,0.239,0.111,0.368,0.111c0.107,0,0.214-0.026,0.312-0.078
			c0.215-0.115,0.35-0.339,0.35-0.583V67.54C26.244,67.319,26.134,67.112,25.95,66.989z"/>
		<path d="M45.571,53.4l-16.344-9.932c-0.205-0.125-0.46-0.128-0.669-0.011c-0.209,0.117-0.337,0.337-0.337,0.577v19.859
			c0,0.221,0.11,0.427,0.294,0.551l16.344,10.925c0.111,0.074,0.239,0.111,0.368,0.111c0.107,0,0.214-0.026,0.312-0.078
			c0.215-0.115,0.35-0.339,0.35-0.584V53.966C45.888,53.734,45.768,53.521,45.571,53.4z"/>
		<path d="M45.594,79.57L29.25,68.646c-0.203-0.137-0.464-0.149-0.68-0.034s-0.35,0.34-0.35,0.584v19.859
			c0,0.222,0.11,0.428,0.294,0.551l16.344,10.926c0.111,0.074,0.239,0.11,0.368,0.11c0.107,0,0.214-0.025,0.312-0.077
			c0.215-0.115,0.35-0.34,0.35-0.584V80.12C45.888,79.9,45.778,79.693,45.594,79.57z"/>
		<path d="M84.82,30.872c-0.211-0.116-0.471-0.109-0.673,0.021L67.405,41.487c-0.196,0.124-0.313,0.341-0.308,0.572l0.396,20.19
			c0.005,0.243,0.142,0.463,0.356,0.574c0.096,0.051,0.201,0.075,0.306,0.075c0.129,0,0.257-0.038,0.368-0.111l16.345-10.926
			c0.185-0.123,0.294-0.329,0.294-0.55V31.452C85.162,31.211,85.031,30.988,84.82,30.872z"/>
		<path d="M84.812,56.03c-0.215-0.115-0.477-0.103-0.68,0.034L67.788,66.989c-0.185,0.123-0.295,0.33-0.295,0.55v19.86
			c0,0.244,0.136,0.468,0.351,0.583c0.098,0.052,0.205,0.078,0.312,0.078c0.129,0,0.257-0.038,0.368-0.111l16.345-10.926
			c0.184-0.123,0.294-0.33,0.294-0.552V56.614C85.162,56.37,85.028,56.146,84.812,56.03z"/>
		<path d="M65.181,43.456c-0.209-0.117-0.463-0.113-0.67,0.011l-16.343,9.932c-0.198,0.12-0.319,0.334-0.319,0.565v20.854
			c0,0.245,0.135,0.469,0.351,0.584c0.098,0.052,0.205,0.078,0.312,0.078c0.129,0,0.257-0.037,0.368-0.111l16.344-10.925
			c0.185-0.124,0.295-0.33,0.295-0.551v-19.86C65.519,43.794,65.39,43.573,65.181,43.456z"/>
		<path d="M44.429,29.796c0.005-0.239-0.118-0.463-0.324-0.585l-15.337-9.11c-0.193-0.115-0.431-0.123-0.633-0.023l-17.108,8.498
			c-0.214,0.106-0.354,0.319-0.366,0.558c-0.013,0.238,0.104,0.465,0.305,0.593l15.285,9.724c0.108,0.068,0.232,0.103,0.355,0.103
			c0.107,0,0.214-0.025,0.311-0.077l17.161-9.111C44.289,30.253,44.424,30.036,44.429,29.796z"/>
		<path d="M31.051,19.967l14.987,8.73c0.103,0.061,0.218,0.09,0.333,0.09c0.109,0,0.217-0.027,0.316-0.08l16.167-8.779
			c0.217-0.118,0.351-0.347,0.346-0.594c-0.004-0.247-0.146-0.471-0.366-0.581l-15.007-7.455c-0.18-0.09-0.391-0.092-0.573-0.008
			l-16.148,7.504c-0.224,0.104-0.372,0.323-0.383,0.569C30.712,19.611,30.838,19.842,31.051,19.967z"/>
		<path d="M63.2,41.065c-0.003-0.24-0.138-0.46-0.351-0.574l-16.152-8.614c-0.195-0.104-0.431-0.104-0.626,0.002l-15.995,8.664
			c-0.213,0.115-0.346,0.336-0.347,0.578c-0.001,0.241,0.129,0.465,0.339,0.583l16.244,9.061c0.1,0.057,0.211,0.084,0.323,0.084
			c0.113,0,0.227-0.028,0.33-0.088l15.903-9.11C63.077,41.53,63.204,41.306,63.2,41.065z"/>
		<path d="M91.945,0.28c-0.139-0.197-0.369-0.301-0.611-0.277L73.132,1.971c-0.221,0.024-0.416,0.157-0.517,0.354l-8.349,16.162
			c-0.109,0.215-0.096,0.473,0.039,0.673c0.123,0.184,0.33,0.293,0.55,0.293c0.021,0,0.039-0.001,0.06-0.003l18.526-1.649
			c0.231-0.021,0.435-0.161,0.537-0.37L92,0.95C92.105,0.735,92.083,0.479,91.945,0.28z"/>
		<path d="M65.169,68.611c-0.216-0.115-0.478-0.103-0.681,0.034L48.144,79.57c-0.185,0.123-0.295,0.33-0.295,0.55v19.86
			c0,0.244,0.135,0.469,0.351,0.584c0.098,0.052,0.205,0.077,0.312,0.077c0.129,0,0.257-0.037,0.368-0.11l16.344-10.926
			c0.185-0.123,0.295-0.33,0.295-0.551V69.195C65.519,68.951,65.384,68.727,65.169,68.611z"/>
	</g>
</g>
<g>
</g>
<g>
</g>
<g>
</g>
<g>
</g>
<g>
</g>
<g>
</g>
<g>
</g>
<g>
</g>
<g>
</g>
<g>
</g>
<g>
</g>
<g>
</g>
<g>
</g>
<g>
</g>
<g>
</g>
</svg>
